<svg width="137" height="114" viewBox="0 0 137 114" fill="none" xmlns="http://www.w3.org/2000/svg">
<g clip-path="url(#clip0_98_126)">
<path d="M0.934326 27.3369C8.17487 46.9638 30.5622 56.9056 51.1882 57.4142C59.078 57.6011 68.0079 56.3462 72.9287 50.0882C77.8494 43.8303 74.8589 31.8766 66.901 31.5024C61.9285 31.3079 57.7617 35.9106 56.8666 40.9063C55.9715 45.9021 57.7176 50.9914 59.9719 55.4702C68.7846 72.8238 87.4186 84.7769 106.62 85.3828" stroke="white" stroke-width="2" stroke-miterlimit="10" stroke-dasharray="12 12"/>
</g>
<path d="M114.608 95.6076L122.572 92.1859L118.948 84.2883L120.974 82.472L126.048 93.5286L114.899 98.319L114.608 95.6076Z" fill="#DEDCDC"/>
<defs>
<clipPath id="clip0_98_126">
<rect width="80.4828" height="91.8501" fill="white" transform="matrix(0.939003 -0.343909 0.34171 0.939805 0.0012207 27.6787)"/>
</clipPath>
</defs>
</svg>
