<svg width="1511" height="1596" viewBox="0 0 1511 1596" fill="none" xmlns="http://www.w3.org/2000/svg">
<path d="M620.397 593.847C558.966 606.464 513.841 667.25 539.221 707.962C564.602 748.675 616.23 773.621 658.891 767.644C701.552 761.667 659.62 693.038 665.82 656.1C672.202 619.019 649.399 587.964 620.397 593.847Z" stroke="#464646" stroke-opacity="0.7" stroke-miterlimit="10"/>
<path d="M554.61 804.628C582.332 841.977 623.711 828.472 665.51 846.497C690.056 857.004 700.871 852.175 710.467 845.04C725.679 833.517 728.543 797.974 728.748 784.42C729.73 743.107 709.164 682.429 722.809 644.255C746.745 576.683 665.029 558.35 623.931 553.172C571.4 546.429 538.512 566.694 526.349 601.537C499.749 679.517 468.119 687.576 554.61 804.628Z" stroke="#464646" stroke-opacity="0.7" stroke-miterlimit="10"/>
<path d="M469.43 688.597C446.998 718.045 492.352 767.149 532.925 860.09C563.658 930.371 640.03 891.296 706.914 923.217C775.93 956.002 775.252 918.598 778.602 863.234C782.591 801.23 750.105 693.661 778.616 629.117C821.384 532.119 678.906 523.491 626.055 508.786C549.714 487.504 518.322 518.533 501.38 562.839C484.241 608.383 485.295 667.893 469.43 688.597Z" stroke="#464646" stroke-opacity="0.7" stroke-miterlimit="10"/>
<path d="M432.162 673.095C390.512 707.083 456.577 777.092 509.696 912.235C549.015 1012.55 654.941 951.15 747.303 996.992C844.812 1045.69 844.549 990.515 837.202 906.123C829.705 819.676 794.586 689.293 833.321 610.162C895.479 483.413 691.865 483.948 626.735 459.904C526.372 422.846 491.789 462.896 474.854 519.564C457.556 576.516 459.69 650.502 432.162 673.095Z" stroke="#464646" stroke-opacity="0.7" stroke-miterlimit="10"/>
<path d="M624.684 413.462C500.926 360.44 462.73 409.857 445.563 478.37C428.571 547.107 432.428 635.081 392.589 659.681C332.195 697.442 418.965 789.512 484.596 966.608C532.958 1097.02 667.98 1013.28 785.567 1073.3C911.686 1137.17 912.106 1063.97 893.368 951.74C874.455 839.28 836.387 687.409 885.174 593.831C966.605 437.773 702.033 446.555 624.684 413.462Z" stroke="#464646" stroke-opacity="0.7" stroke-miterlimit="10"/>
<path d="M477.25 1028.74C547.946 1152.74 684.683 1112.9 806.753 1165.62C929.179 1218.43 948.234 1157.92 958.584 1054.24C964.386 995.756 932.808 912.888 911.778 829.743C888.545 737.82 887.188 653.789 951.144 590.424C1076.52 466.401 718.64 391.883 625.299 368.856C494.729 336.533 449.446 393.637 423.562 469.984C397.853 546.556 391.944 639.16 340.07 668.464C263.159 711.897 372.519 844.795 477.25 1028.74Z" stroke="#464646" stroke-opacity="0.7" stroke-miterlimit="10"/>
<path d="M472.82 1089.29C563.654 1207.42 704.397 1210.99 830.902 1255.69C949.757 1297.7 993.982 1249.41 1027.14 1153.72C1050.18 1087.27 997.437 981.32 961.371 873.189C923.426 759.294 914.126 655.56 1020.97 584.014C1176.44 480.263 739.879 333.235 629.674 321.714C492.498 307.403 439.205 375.072 404.795 459.445C370.385 543.817 354.202 641.067 289.985 674.968C197.255 724.638 326.046 898.442 472.82 1089.29Z" stroke="#464646" stroke-opacity="0.7" stroke-miterlimit="10"/>
<path d="M469.384 1140.7C579.58 1254.17 725.2 1301.57 856.299 1338.59C971.367 1371.11 1043.73 1336.3 1096.29 1247.07C1138.77 1174.76 1062.26 1043.3 1010.81 910.008C958.148 774.043 937.392 645.384 1089.7 570.937C1271.89 481.833 758.994 265.022 632.551 266.382C488.403 267.811 428.109 347.876 385.353 439.956C342.416 532.177 316.689 634.131 240.342 672.411C131.402 727.1 278.433 944.354 469.384 1140.7Z" stroke="#464646" stroke-opacity="0.7" stroke-miterlimit="10"/>
</svg>
