<svg width="596" height="118" viewBox="0 0 596 118" fill="none" xmlns="http://www.w3.org/2000/svg">
<g clip-path="url(#clip0_121_748)">
<path d="M525.999 15C524.896 15 523.999 15.8973 523.999 17C523.999 18.1027 524.896 19 525.999 19C527.102 19 527.999 18.1027 527.999 17C527.999 15.8973 527.102 15 525.999 15ZM525.999 17.6667C525.631 17.6667 525.332 17.3673 525.332 17C525.332 16.6327 525.631 16.3333 525.999 16.3333C526.367 16.3333 526.666 16.6327 526.666 17C526.666 17.3673 526.367 17.6667 525.999 17.6667Z" fill="#464646"/>
<path d="M583.999 19C585.102 19 585.999 18.1027 585.999 17C585.999 15.8973 585.102 15 583.999 15C582.896 15 581.999 15.8973 581.999 17C581.999 18.1027 582.896 19 583.999 19ZM583.999 16.3333C584.367 16.3333 584.666 16.6327 584.666 17C584.666 17.3673 584.367 17.6667 583.999 17.6667C583.631 17.6667 583.332 17.3673 583.332 17C583.332 16.6327 583.631 16.3333 583.999 16.3333Z" fill="#464646"/>
<path d="M527.999 67C527.999 65.8973 527.102 65 525.999 65C524.896 65 523.999 65.8973 523.999 67C523.999 68.1027 524.896 69 525.999 69C527.102 69 527.999 68.1027 527.999 67ZM525.332 67C525.332 66.6327 525.631 66.3333 525.999 66.3333C526.367 66.3333 526.666 66.6327 526.666 67C526.666 67.3673 526.367 67.6667 525.999 67.6667C525.631 67.6667 525.332 67.3673 525.332 67Z" fill="#464646"/>
<path d="M583.999 65C582.896 65 581.999 65.8973 581.999 67C581.999 68.1027 582.896 69 583.999 69C585.102 69 585.999 68.1027 585.999 67C585.999 65.8973 585.102 65 583.999 65ZM583.999 67.6667C583.631 67.6667 583.332 67.3673 583.332 67C583.332 66.6327 583.631 66.3333 583.999 66.3333C584.367 66.3333 584.666 66.6327 584.666 67C584.666 67.3673 584.367 67.6667 583.999 67.6667Z" fill="#464646"/>
<path d="M568.349 33.7358L582.702 20.8709C583.196 21.0544 583.726 21.1598 584.283 21.1598C584.296 21.1598 584.308 21.1578 584.32 21.1578L592.28 31.3847C592.8 31.9534 593.488 32.2547 594.139 32.2547C594.539 32.2547 594.925 32.1409 595.25 31.9053C595.62 31.6365 596.717 30.5615 595.277 28.0191L592.675 23.464C591.969 22.0519 591.23 20.6626 590.616 20.0731L588.594 18.0512C588.745 17.5983 588.831 17.1155 588.831 16.6118C588.831 14.1046 586.791 12.0645 584.283 12.0645C584.057 12.0645 583.836 12.0866 583.619 12.1185L575.643 1.87083C574.803 0.953301 573.525 0.729449 572.672 1.3496C572.302 1.61835 571.205 2.69335 572.645 5.23576L575.245 9.78697C575.917 11.1327 576.689 12.5897 577.306 13.1818L579.826 15.7015C579.766 15.9962 579.735 16.3014 579.735 16.6131C579.735 16.6704 579.741 16.7257 579.743 16.7817L568.29 23.7204C567.301 20.2429 564.437 17.5469 560.857 16.8175V16.6209C560.857 16.578 560.853 16.5357 560.844 16.4934C560.553 15.0358 559.219 14.018 557.603 14.018H552.395C550.778 14.018 549.445 15.0358 549.154 16.4934C549.145 16.5357 549.141 16.578 549.141 16.6209V16.8175C545.566 17.5463 542.704 20.2377 541.712 23.723L530.867 17.1519C530.886 16.9801 530.899 16.8064 530.899 16.6287C530.899 16.1316 530.816 15.654 530.667 15.2056L532.683 13.1909C533.309 12.5897 534.081 11.1327 534.75 9.79022L537.355 5.23315C538.794 2.69335 537.697 1.61835 537.326 1.3496C536.472 0.728148 535.195 0.953301 534.322 1.91052L526.407 12.0847C526.388 12.0847 526.37 12.0821 526.35 12.0821C523.842 12.0821 521.802 14.1221 521.802 16.6294C521.802 16.9483 521.836 17.2587 521.899 17.5593L519.392 20.0653C518.768 20.6639 518.029 22.0539 517.325 23.466L514.72 28.023C513.281 30.5628 514.378 31.6378 514.748 31.9066C515.07 32.1402 515.452 32.2541 515.849 32.2541C516.507 32.2541 517.208 31.9424 517.752 31.3457L525.704 21.1253C525.916 21.1552 526.13 21.176 526.35 21.176C526.738 21.176 527.113 21.122 527.473 21.0303L541.649 33.7358L542.341 49.6429L527.473 62.9686C527.113 62.8768 526.738 62.8228 526.35 62.8228C526.13 62.8228 525.915 62.8436 525.703 62.8742L517.719 52.6141C516.879 51.6959 515.602 51.4734 514.748 52.0929C514.378 52.3617 513.281 53.4367 514.721 55.9791L517.323 60.5329C518.028 61.945 518.767 63.3349 519.382 63.9251L521.899 66.4408C521.836 66.7408 521.802 67.0519 521.802 67.3707C521.802 69.878 523.843 71.918 526.35 71.918C526.369 71.918 526.388 71.9154 526.407 71.9154L534.356 82.1293C534.876 82.6981 535.564 83 536.216 83C536.616 83 537.002 82.8861 537.326 82.6505C537.697 82.3811 538.794 81.3068 537.354 78.7644L534.753 74.2132C534.081 72.8675 533.309 71.4105 532.692 70.8183L530.667 68.7939C530.816 68.3455 530.899 67.8679 530.899 67.3707C530.899 67.1937 530.886 67.02 530.867 66.8476L543.354 59.2809C544.435 61.3808 546.62 62.8228 549.141 62.8228H560.857C563.38 62.8228 565.568 61.3769 566.648 59.2828L579.117 66.8378C579.097 67.0128 579.083 67.1892 579.083 67.3694C579.083 67.8712 579.168 68.3527 579.319 68.8043L577.315 70.8073C576.688 71.4085 575.917 72.8655 575.248 74.208L572.643 78.765C571.204 81.3048 572.301 82.3798 572.671 82.6486C572.993 82.8822 573.375 82.9961 573.772 82.9961C574.43 82.9961 575.131 82.6844 575.675 82.0877L583.591 71.9141C583.604 71.9141 583.617 71.9161 583.631 71.9161C586.14 71.9161 588.18 69.8761 588.18 67.3688C588.18 66.8703 588.096 66.3914 587.947 65.9424L589.948 63.942C590.572 63.3434 591.311 61.9534 592.016 60.5413L594.62 55.9843C596.059 53.4445 594.962 52.3695 594.592 52.1007C593.738 51.4793 592.461 51.7044 591.588 52.6616L583.681 62.8247C583.664 62.8247 583.648 62.8221 583.632 62.8221C583.248 62.8221 582.877 62.8749 582.521 62.9647L567.657 49.6436L568.349 33.7358ZM589.705 21.0036C590.253 21.5294 591.166 23.3579 591.51 24.0464C591.515 24.0575 591.536 24.1004 591.543 24.1108L594.145 28.664C594.82 29.8561 594.803 30.6227 594.484 30.8537C594.213 31.0502 593.649 30.9559 593.272 30.5472L585.771 20.9053C586.662 20.5956 587.425 20.0184 587.967 19.2681L589.705 21.0036ZM587.529 16.6131C587.529 18.4026 586.073 19.859 584.283 19.859C582.493 19.859 581.036 18.4033 581.036 16.6131C581.036 14.823 582.492 13.3673 584.282 13.3673C586.073 13.3673 587.529 14.823 587.529 16.6131ZM578.217 12.2519C577.668 11.7255 576.754 9.89499 576.41 9.20586C576.404 9.1948 576.385 9.15576 576.378 9.14535L573.776 4.59218C573.101 3.40005 573.119 2.63349 573.437 2.40248C573.704 2.20596 574.27 2.29901 574.648 2.70897L582.29 12.5311C581.468 12.9339 580.784 13.5749 580.332 14.3668L578.217 12.2519ZM580.005 18.1443C580.3 18.9649 580.823 19.6755 581.499 20.2013L568.427 31.9164L568.668 26.3819C568.668 25.9368 568.628 25.5021 568.57 25.0726L580.005 18.1443ZM552.395 15.3195H557.603C558.41 15.3195 559.305 15.7346 559.542 16.6535C559.331 16.6392 559.12 16.6209 558.904 16.6209H551.093C550.878 16.6209 550.667 16.6392 550.455 16.6535C550.693 15.7346 551.587 15.3195 552.395 15.3195ZM535.316 2.74867C535.727 2.29966 536.292 2.20661 536.561 2.40248C536.878 2.63284 536.897 3.40005 536.223 4.58958L533.619 9.14469C533.613 9.15511 533.593 9.19415 533.587 9.20521C533.244 9.89434 532.329 11.7255 531.771 12.261L530.045 13.9868C529.505 13.2345 528.743 12.6547 527.854 12.3424L535.316 2.74867ZM516.758 30.5069C516.346 30.9559 515.781 31.0489 515.513 30.8531C515.196 30.6227 515.177 29.8555 515.851 28.666L518.455 24.1108C518.461 24.1004 518.483 24.0575 518.488 24.0464C518.832 23.3579 519.746 21.5294 520.303 20.9945L522.409 18.8887C522.864 19.6787 523.549 20.3177 524.372 20.7173L516.758 30.5069ZM523.104 16.6287C523.104 14.8392 524.56 13.3829 526.35 13.3829C528.141 13.3829 529.597 14.8386 529.597 16.6287C529.597 18.4189 528.141 19.8746 526.35 19.8746C524.56 19.8746 523.104 18.4189 523.104 16.6287ZM528.789 20.4609C529.543 19.9794 530.147 19.2844 530.511 18.4586L541.431 25.0752C541.371 25.5132 541.329 25.9563 541.33 26.4105L541.57 31.9164L528.789 20.4609ZM520.293 62.9952C519.745 62.4688 518.832 60.6396 518.487 59.9511C518.482 59.9401 518.461 59.8984 518.455 59.888L515.852 55.3348C515.177 54.1427 515.196 53.3761 515.513 53.1451C515.781 52.9499 516.346 53.0423 516.725 53.4523L524.372 63.2816C523.548 63.6818 522.863 64.3201 522.408 65.1101L520.293 62.9952ZM523.104 67.3701C523.104 65.5806 524.56 64.1243 526.35 64.1243C528.141 64.1243 529.597 65.5799 529.597 67.3701C529.597 69.1603 528.141 70.6159 526.35 70.6159C524.56 70.6159 523.104 69.1596 523.104 67.3701ZM531.781 71.7469C532.33 72.2733 533.244 74.1039 533.587 74.793C533.593 74.804 533.613 74.8431 533.619 74.8535L536.222 79.4067C536.897 80.5988 536.878 81.3653 536.561 81.5964C536.292 81.7909 535.728 81.6992 535.349 81.2899L527.855 71.6565C528.744 71.3435 529.506 70.7643 530.046 70.0121L531.781 71.7469ZM530.511 65.5402C530.147 64.7145 529.543 64.0195 528.789 63.5379L542.414 51.3257L542.631 56.3155C542.631 56.9168 542.72 57.4972 542.873 58.0503L530.511 65.5402ZM549.934 61.5213L550.422 59.0765C550.634 58.2306 551.464 57.6169 552.395 57.6169H557.603C558.534 57.6169 559.363 58.2306 559.568 59.046L560.063 61.5213H549.934ZM561.385 61.4947L560.837 58.7603C560.484 57.3436 559.122 56.3155 557.603 56.3155H552.395C550.875 56.3155 549.514 57.3436 549.154 58.7909L548.613 61.4947C545.989 61.2292 543.933 59.0063 543.933 56.2875L542.937 33.3994C542.937 33.3987 542.937 33.3974 542.937 33.3968L542.631 26.3819C542.631 25.8535 542.686 25.3375 542.78 24.8358C542.78 24.8351 542.78 24.8351 542.78 24.8345C543.51 20.9073 546.957 17.9224 551.093 17.9224H558.904C563.042 17.9224 566.489 20.9086 567.219 24.8169C567.22 24.8292 567.222 24.8403 567.224 24.8527C567.313 25.3407 567.366 25.8411 567.366 26.3539L566.065 56.3155C566.065 59.0076 564.01 61.2292 561.385 61.4947ZM574.682 81.2502C574.27 81.6992 573.704 81.7916 573.437 81.5964C573.119 81.366 573.1 80.5988 573.775 79.4093L576.378 74.8541C576.385 74.8437 576.404 74.8047 576.41 74.7936C576.754 74.1045 577.669 72.2733 578.226 71.7378L579.944 70.0212C580.486 70.7728 581.249 71.3506 582.14 71.661L574.682 81.2502ZM583.631 70.6159C581.841 70.6159 580.385 69.1603 580.385 67.3701C580.385 65.5799 581.841 64.1243 583.631 64.1243C585.422 64.1243 586.878 65.5799 586.878 67.3701C586.878 69.1603 585.422 70.6159 583.631 70.6159ZM592.581 53.5011C592.993 53.0514 593.558 52.959 593.826 53.1549C594.144 53.3852 594.163 54.1525 593.489 55.342L590.885 59.8971C590.878 59.9075 590.857 59.9505 590.852 59.9615C590.508 60.65 589.594 62.4786 589.037 63.0135L587.324 64.7255C586.783 63.9726 586.02 63.3935 585.129 63.0811L592.581 53.5011ZM581.202 63.5321C580.446 64.0123 579.841 64.7073 579.474 65.5331L567.127 58.0523C567.279 57.5063 567.366 56.9356 567.366 56.3441L567.584 51.3263L581.202 63.5321Z" fill="#464646"/>
<path d="M560.785 22H549.213C547.441 22 545.999 23.4953 545.999 25.3333V30.6667C545.999 32.5047 547.441 34 549.213 34H560.785C562.557 34 563.999 32.5047 563.999 30.6667V25.3333C563.999 23.4953 562.557 22 560.785 22ZM562.713 30.6667C562.713 31.7693 561.848 32.6667 560.785 32.6667H549.213C548.15 32.6667 547.285 31.7693 547.285 30.6667V25.3333C547.285 24.2307 548.15 23.3333 549.213 23.3333H560.785C561.848 23.3333 562.713 24.2307 562.713 25.3333V30.6667Z" fill="#464646"/>
</g>
<path d="M480 39.3005C433.959 28.6991 386.458 24.0751 339.293 25.4284C303.359 26.4435 243.505 24.8645 214.757 50.5787C199.822 63.9996 191.624 90.7288 212.736 102.909C243.505 120.616 266.75 76.18 234.184 58.4734C224.639 53.2854 213.522 51.8193 202.742 50.8042C150.636 45.8419 100.103 51.932 48.1101 55.3155C-30.7215 60.5034 -108.992 61.5185 -187.374 50.3531C-245.207 42.0073 -301.916 37.2705 -352 4" stroke="#464646" stroke-width="2" stroke-miterlimit="10" stroke-dasharray="12 12"/>
<defs>
<clipPath id="clip0_121_748">
<rect width="83" height="83" fill="white" transform="translate(512.999)"/>
</clipPath>
</defs>
</svg>
