<svg width="48" height="28" viewBox="0 0 48 28" fill="none" xmlns="http://www.w3.org/2000/svg">
<path d="M2.4802 -8.58307e-06V27.68H0.000195324V-8.58307e-06H2.4802ZM8.08613 -8.58307e-06H12.9261C14.6061 -8.58307e-06 15.9661 0.533325 17.0061 1.59999C18.0461 2.63999 18.5661 3.99999 18.5661 5.67999V11.24C18.5661 12.92 18.0461 14.2933 17.0061 15.36C15.9661 16.4 14.6061 16.92 12.9261 16.92H10.5661V27.68H8.08613V-8.58307e-06ZM12.8061 14.68C13.7928 14.68 14.5795 14.3733 15.1661 13.76C15.7795 13.1467 16.0861 12.2667 16.0861 11.12V5.79999C16.0861 4.65332 15.7795 3.77332 15.1661 3.15999C14.5795 2.54666 13.7928 2.23999 12.8061 2.23999H10.5661V14.68H12.8061ZM27.808 11.88C28.9813 11.88 30.0347 12.1733 30.968 12.76C31.928 13.32 32.6747 14.1333 33.208 15.2C33.7413 16.24 34.008 17.4533 34.008 18.84V21.04C34.008 22.4267 33.7413 23.6533 33.208 24.72C32.6747 25.76 31.928 26.5733 30.968 27.16C30.0347 27.72 28.9813 28 27.808 28C26.6347 28 25.568 27.72 24.608 27.16C23.6747 26.5733 22.9413 25.76 22.408 24.72C21.8747 23.6533 21.608 22.4267 21.608 21.04V18.84C21.608 17.6667 21.848 16.5067 22.328 15.36L28.688 -8.58307e-06H31.168L26.088 12.12C26.5947 11.96 27.168 11.88 27.808 11.88ZM31.528 18.84C31.528 17.3467 31.1813 16.1867 30.488 15.36C29.8213 14.5333 28.928 14.12 27.808 14.12C26.688 14.12 25.7813 14.5333 25.088 15.36C24.4213 16.1867 24.088 17.3467 24.088 18.84V21.04C24.088 22.5333 24.4213 23.6933 25.088 24.52C25.7813 25.3467 26.688 25.76 27.808 25.76C28.928 25.76 29.8213 25.3467 30.488 24.52C31.1813 23.6933 31.528 22.5333 31.528 21.04V18.84ZM47.5877 1.87999L40.5877 27.68H37.9877L44.8677 2.23999H38.3477V6.23999H35.8677V-8.58307e-06H47.5877V1.87999Z" fill="#02E602"/>
</svg>
