<svg width="1402" height="1436" viewBox="0 0 1402 1436" fill="none" xmlns="http://www.w3.org/2000/svg">
<g clip-path="url(#clip0_132_38)">
<path d="M539.383 516.505C485.835 527.361 446.639 580.341 468.887 615.976C491.135 651.61 536.235 673.543 573.43 668.437C610.624 663.331 573.864 603.264 579.172 571.011C584.638 538.636 564.665 511.444 539.383 516.505Z" stroke="#464646" stroke-opacity="0.7" stroke-miterlimit="10"/>
<path d="M482.217 700.509C506.536 733.257 542.558 721.621 579.073 737.54C600.516 746.819 609.925 742.643 618.263 736.446C631.479 726.437 633.834 695.39 633.959 683.546C634.65 647.45 616.476 594.344 628.22 561.041C648.818 502.089 577.501 485.742 541.649 481.052C495.823 474.95 467.23 492.527 456.765 522.926C433.886 590.961 406.342 597.878 482.217 700.509Z" stroke="#464646" stroke-opacity="0.7" stroke-miterlimit="10"/>
<path d="M408.778 598.628C389.231 624.345 428.948 667.375 464.567 748.74C491.547 810.268 558.206 776.228 616.705 804.27C677.067 833.07 676.407 800.353 679.234 751.935C682.607 697.71 654.028 603.565 678.822 547.163C716.016 462.4 591.51 454.596 545.304 441.639C478.563 422.886 451.19 449.969 436.467 488.691C421.574 528.495 422.602 580.548 408.778 598.628Z" stroke="#464646" stroke-opacity="0.7" stroke-miterlimit="10"/>
<path d="M375.725 586.533C339.475 616.123 397.272 677.436 443.935 795.613C478.474 883.336 570.728 829.955 651.408 870.222C736.585 912.996 736.223 864.797 729.611 791.062C722.864 715.53 691.915 601.553 725.515 532.524C779.431 421.955 601.816 421.933 544.944 400.774C457.305 368.162 427.234 403.063 412.597 452.524C397.645 502.23 399.684 566.864 375.725 586.533Z" stroke="#464646" stroke-opacity="0.7" stroke-miterlimit="10"/>
<path d="M544.205 359.939C436.146 313.557 402.839 356.682 387.9 416.496C373.115 476.506 376.54 553.327 341.783 574.781C289.092 607.713 364.893 688.167 422.299 842.852C464.599 956.763 582.4 883.731 685.077 936.218C795.205 992.069 795.523 928.159 779.092 830.143C762.507 731.93 729.177 599.292 771.699 517.612C842.673 381.396 611.742 388.887 544.205 359.939Z" stroke="#464646" stroke-opacity="0.7" stroke-miterlimit="10"/>
<path d="M415.553 896.398C477.419 1004.84 596.852 970.125 703.546 1016.31C810.551 1062.56 827.151 1009.69 836.11 919.072C841.132 867.956 813.475 795.496 795.035 722.803C774.663 642.435 773.41 568.983 829.236 513.648C938.674 405.342 625.94 339.918 544.37 319.715C430.266 291.356 390.749 341.234 368.196 407.947C345.796 474.857 340.708 555.797 295.409 581.37C228.248 619.272 323.902 735.526 415.553 896.398Z" stroke="#464646" stroke-opacity="0.7" stroke-miterlimit="10"/>
<path d="M412.694 949.392C492.189 1052.77 615.054 1056.13 725.562 1095.41C829.387 1132.31 867.91 1090.19 896.689 1006.64C916.687 948.614 870.469 855.944 838.8 761.399C805.482 661.814 797.187 571.156 890.335 508.822C1025.88 418.431 644.529 289.214 548.308 278.959C428.537 266.22 382.131 325.258 352.237 398.923C322.344 472.588 308.383 557.536 252.383 587.049C171.52 630.292 284.244 782.38 412.694 949.392Z" stroke="#464646" stroke-opacity="0.7" stroke-miterlimit="10"/>
<path d="M408.911 993.423C505.284 1092.73 632.501 1134.34 747.025 1166.86C847.545 1195.43 910.687 1165.11 956.457 1087.21C993.458 1024.08 926.477 909.101 881.375 792.555C835.21 673.671 816.915 561.214 949.811 496.361C1108.78 418.739 660.635 228.598 550.227 229.618C424.361 230.675 371.819 300.561 334.606 380.969C297.236 461.499 274.907 550.558 208.292 583.908C113.239 631.554 241.914 821.597 408.911 993.423Z" stroke="#464646" stroke-opacity="0.7" stroke-miterlimit="10"/>
</g>
<defs>
<clipPath id="clip0_132_38">
<rect width="1110" height="911" fill="white" transform="translate(683.384 1435.56) rotate(-128)"/>
</clipPath>
</defs>
</svg>
