<svg width="160" height="98" viewBox="0 0 160 98" fill="none" xmlns="http://www.w3.org/2000/svg">
<path d="M1.61523 0.994141C20.7744 6.50498 42.0128 9.24515 62.6035 13.3408C83.8624 17.5694 104.482 23.2485 121.694 34.8916C142.295 48.8055 158.879 71.6716 159.484 97.2881C151.28 94.3841 142.555 92.5013 133.781 90.8486C124.75 89.1475 115.685 87.6891 107.026 85.6035H107.027C64.0616 75.142 19.7124 63.4837 5.98633 16.2637L5.96484 16.1885L5.9209 16.123L5.7959 15.9111C5.66843 15.6666 5.53231 15.325 5.38965 14.8877C5.20273 14.3146 5.01658 13.6147 4.82715 12.8271C4.44606 11.2429 4.06792 9.37129 3.64551 7.50391C3.22726 5.65494 2.76893 3.82664 2.24023 2.40332C2.04697 1.88306 1.8394 1.40526 1.61523 0.994141Z" fill="#1B1C1D" stroke="#02E602"/>
</svg>
