<svg width="40" height="28" viewBox="0 0 40 28" fill="none" xmlns="http://www.w3.org/2000/svg">
<path d="M9.0002 27.68L4.6402 16.52H2.4802V27.68H0.000195324V-8.58307e-06H5.0402C6.7202 -8.58307e-06 8.0802 0.533325 9.1202 1.59999C10.1602 2.63999 10.6802 3.99999 10.6802 5.67999V10.84C10.6802 12.1467 10.3469 13.28 9.6802 14.24C9.0402 15.1733 8.1602 15.8267 7.0402 16.2L11.8002 27.68H9.0002ZM2.4802 14.28H4.9202C5.90686 14.28 6.69353 13.9733 7.2802 13.36C7.89353 12.7467 8.2002 11.8667 8.2002 10.72V5.79999C8.2002 4.65332 7.89353 3.77332 7.2802 3.15999C6.69353 2.54666 5.90686 2.23999 4.9202 2.23999H2.4802V14.28ZM12.9164 -8.58307e-06H24.5964V2.23999H19.9964V27.68H17.5164V2.23999H12.9164V-8.58307e-06ZM32.8489 14.04H30.4489V27.68H27.9689V-8.58307e-06H30.4489V11.8H32.9289L36.2889 -8.58307e-06H38.9689L34.8889 12.88L39.7689 27.68H37.0089L32.8489 14.04Z" fill="#02E602"/>
</svg>
