<svg width="42" height="42" viewBox="0 0 42 42" fill="none" xmlns="http://www.w3.org/2000/svg">
<path d="M20.5015 27C24.0913 27 27.0015 24.3137 27.0015 21C27.0015 17.6863 24.0913 15 20.5015 15C16.9116 15 14.0015 17.6863 14.0015 21C14.0015 24.3137 16.9116 27 20.5015 27Z" stroke="#02E602" stroke-width="2" stroke-miterlimit="10" stroke-linecap="round" stroke-linejoin="round"/>
<path d="M40.5546 12.3323L38.8916 9.66769C37.9736 8.19538 35.9398 7.69231 34.3483 8.54154L33.4736 9.00923C30.1476 10.7846 25.9901 8.56462 25.9901 5.01231V4.07692C25.9901 2.37692 24.5017 1 22.6641 1H19.3381C17.5005 1 16.0121 2.37692 16.0121 4.07692V5.01231C16.0121 8.56462 11.8546 10.7862 8.52862 9.00923L7.65388 8.54154C6.0624 7.69231 4.02855 8.19538 3.11058 9.66769L1.44758 12.3323C0.529606 13.8046 1.07341 15.6862 2.66489 16.5354L3.53963 17.0031C6.86562 18.78 6.86562 23.22 3.53963 24.9969L2.66489 25.4646C1.07341 26.3138 0.529606 28.1954 1.44758 29.6677L3.11058 32.3323C4.02855 33.8046 6.0624 34.3077 7.65388 33.4585L8.52862 32.9908C11.8546 31.2138 16.0121 33.4354 16.0121 36.9877V37.9231C16.0121 39.6231 17.5005 41 19.3381 41H22.6641C24.5017 41 25.9901 39.6231 25.9901 37.9231V36.9877C25.9901 33.4354 30.1476 31.2138 33.4736 32.9908L34.3483 33.4585C35.9398 34.3077 37.9736 33.8046 38.8916 32.3323L40.5546 29.6677C41.4726 28.1954 40.9288 26.3138 39.3373 25.4646L38.4626 24.9969C35.1366 23.22 35.1366 18.78 38.4626 17.0031L39.3373 16.5354C40.9288 15.6862 41.4742 13.8046 40.5546 12.3323Z" stroke="#02E602" stroke-width="2" stroke-miterlimit="10" stroke-linecap="round" stroke-linejoin="round"/>
</svg>
