<svg width="29" height="45" viewBox="0 0 29 45" fill="none" xmlns="http://www.w3.org/2000/svg">
<path d="M12.2139 0.5C12.5537 0.567865 12.883 0.632881 13.1943 0.712891L13.1973 0.713867C16.1376 1.45374 18.0362 3.79055 18.0537 6.62988C18.0727 9.58993 18.0537 12.5374 18.0537 15.5039C18.0537 18.8527 18.0534 22.2098 18.0439 25.5576V25.5586C18.0439 25.7718 18.0811 25.979 18.1816 26.1768C18.2793 26.3685 18.4202 26.5167 18.5742 26.6436V26.6445C20.3296 28.1151 21.5027 29.738 22.0801 31.4883C22.656 33.2345 22.6516 35.1453 21.9912 37.2188C20.6996 41.2631 17.6173 43.6269 13.0547 44.4014L13.0518 44.4023C12.952 44.4199 12.8517 44.4375 12.752 44.4551C12.667 44.4701 12.582 44.485 12.4971 44.5H10.5088C9.56373 44.2951 8.7023 44.1661 7.85059 43.9062C3.25918 42.5039 0.210475 38.18 0.522461 33.7949L0.5625 33.3701C0.888016 30.643 2.17499 28.3876 4.4502 26.6025L4.44922 26.6016C4.6518 26.4461 4.78645 26.2622 4.8584 26.0459C4.9244 25.8474 4.92676 25.6517 4.92676 25.5146V6.76758C4.92676 4.59868 5.80898 2.90307 7.66406 1.64844L8.04785 1.4043C8.77196 0.968444 9.58012 0.697867 10.4619 0.574219L10.4609 0.572266C10.5587 0.560092 10.6415 0.534201 10.6904 0.516602C10.7097 0.509684 10.724 0.504262 10.7354 0.5H12.2139ZM13.9199 2.74414C12.6398 2.03916 10.9924 1.88282 9.49414 2.55859H9.49316C8.57157 2.97533 7.88056 3.55804 7.42383 4.29688C6.9685 5.03364 6.76758 5.89183 6.76758 6.8291V6.83008C6.77233 10.0727 6.77246 13.3181 6.77246 16.5635L6.77734 26.2979C6.77723 26.5946 6.72549 26.8123 6.63184 26.9893C6.5383 27.1659 6.38296 27.3385 6.11719 27.5146L6.11621 27.5156C2.67225 29.8076 1.40479 34.0497 3.0791 37.7021L3.08008 37.7031C4.73667 41.301 8.88697 43.4558 12.9971 42.7324L12.9961 42.7314C14.9066 42.398 16.5065 41.6903 17.7549 40.6035C19.0047 39.5154 19.8768 38.0709 20.3652 36.3096C21.2551 33.0989 19.925 29.7133 17.1211 27.6895L16.8457 27.498C16.5859 27.3242 16.4312 27.1555 16.3379 26.9844C16.2458 26.8152 16.1938 26.6085 16.1934 26.3271C16.2219 23.0198 16.2129 19.703 16.2129 16.3916V15.8916H16.2051C16.2094 13.129 16.2449 10.3545 16.207 7.57812L16.1846 6.31641C16.1512 4.72879 15.2007 3.4496 13.9199 2.74414Z" stroke="#02E602"/>
<path d="M27.4961 7.50684V7.50781C28.1117 7.51494 28.506 7.93115 28.5 8.50586C28.4938 9.07692 28.1125 9.47148 27.5078 9.48535H27.5049C26.8294 9.50498 26.1587 9.49512 25.4639 9.49512C24.796 9.49512 24.1615 9.50495 23.5088 9.49512C23.176 9.48747 22.9273 9.37147 22.7646 9.20801C22.6029 9.04534 22.4968 8.80707 22.5 8.49707C22.5033 8.18391 22.6135 7.94637 22.7773 7.78613C22.9417 7.62534 23.192 7.51164 23.5312 7.50781L23.5303 7.50684C24.8522 7.4969 26.1742 7.49691 27.4961 7.50684Z" stroke="#02E602"/>
<path d="M27.542 12.5098H27.543C27.888 12.5125 28.1501 12.6035 28.3096 12.7148C28.4653 12.8236 28.5011 12.93 28.5 13.0049V13.0059C28.4985 13.0908 28.458 13.1937 28.3047 13.2959C28.1436 13.4033 27.876 13.4915 27.5117 13.4971H23.4609C23.1065 13.4916 22.8439 13.4012 22.6865 13.292C22.5355 13.187 22.4988 13.0832 22.5 13.002C22.5014 12.9204 22.5429 12.8132 22.6943 12.708C22.8495 12.6003 23.1024 12.5125 23.4385 12.5098H23.4395C24.8069 12.4965 26.1745 12.4965 27.542 12.5098Z" stroke="#02E602"/>
<path d="M27.5859 17.5146H27.5869C28.1065 17.5211 28.5064 17.935 28.5 18.5127C28.4936 19.0794 28.1056 19.4778 27.5537 19.4912H27.5508C26.8556 19.5109 26.1782 19.4912 25.4639 19.4912C24.7877 19.4912 24.1261 19.501 23.4648 19.4912C22.8824 19.4777 22.4938 19.0684 22.5 18.4932C22.5066 17.9187 22.8916 17.5213 23.4404 17.5146H23.4424C24.8265 17.4948 26.2019 17.4948 27.5859 17.5146Z" stroke="#02E602"/>
<path d="M22.5 23.5117C22.4939 22.9323 22.8866 22.5213 23.4609 22.5146H23.4619C24.8112 22.4948 26.1702 22.4948 27.5195 22.5146H27.5215C28.1145 22.5216 28.4998 22.9237 28.5 23.4971V23.5029C28.5032 23.8102 28.3963 24.0483 28.2324 24.2119C28.0673 24.3768 27.817 24.4926 27.4883 24.5H27.416C26.771 24.49 26.1262 24.4902 25.4863 24.4902H23.4795C22.8886 24.4834 22.5001 24.0847 22.5 23.5176V23.5117Z" stroke="#02E602"/>
<path d="M12.0498 14.502C12.4846 14.5367 12.711 14.8051 12.7314 15.0176L12.7324 15.0273L12.7334 15.0361C12.7441 15.1171 12.7373 15.1826 12.7373 15.3506V29.0703L13.1152 29.165C15.7783 29.8328 16.7404 31.8182 16.4492 33.3535L16.417 33.501C16.0071 35.1686 14.2268 36.4744 12.0918 36.5C9.88737 36.5256 8.07295 35.2736 7.6123 33.5811C7.35882 32.6312 7.53398 31.7424 8.15625 30.8887L8.27637 30.7285C8.88439 29.964 9.76156 29.464 10.8994 29.1787L11.2773 29.084V15.2744C11.2773 15.0735 11.2755 15.0093 11.2939 14.9521L11.2998 14.9346C11.3619 14.7165 11.6734 14.4758 12.0498 14.502ZM12.0078 30.1494C10.4088 30.1425 8.95527 31.2749 8.96582 32.8086C8.9765 34.3302 10.4334 35.4268 12.0156 35.4268H12.0186C13.5966 35.4187 15.041 34.3028 15.041 32.7842C15.0408 31.2638 13.5858 30.1496 12.0078 30.1494Z" stroke="#02E602"/>
</svg>
