<svg width="40" height="40" viewBox="0 0 40 40" fill="none" xmlns="http://www.w3.org/2000/svg">
<path d="M0.322188 40C0.0683444 39.7061 0 39.373 0 38.9909C0.00976322 26.3628 0.00976382 13.7346 0.00976382 1.10648C0.00976382 0.959526 1.19151e-06 0.812574 0.0195276 0.675418C0.107397 0.068013 0.781058 -0.2063 1.26922 0.175778C1.38638 0.263949 1.48401 0.371715 1.58164 0.469684C14.2348 13.1664 26.8879 25.8631 39.5411 38.5599C39.7168 38.7362 39.8437 38.9419 39.9999 39.1379C39.9999 39.422 39.9999 39.7159 39.9999 40C26.7708 40 13.5514 40 0.322188 40ZM30.9592 32.2507C30.9006 32.3389 30.8225 32.4662 30.7249 32.5642C30.2953 33.005 29.8657 33.4361 29.4264 33.8672C29.2018 34.0925 28.8894 34.2394 28.616 34.0729C28.3915 33.9455 28.1376 33.681 28.1083 33.4557C28.079 33.2108 28.245 32.8777 28.4207 32.672C28.8894 32.1429 29.4264 31.6531 29.8852 31.1926C28.7722 30.0562 27.6787 28.9589 26.556 27.8127C26.3802 28.0087 26.1947 28.234 25.9897 28.4299C25.648 28.7826 25.3063 29.1451 24.9353 29.4684C24.6033 29.7623 24.1542 29.7329 23.8711 29.4488C23.588 29.1647 23.5684 28.7238 23.8418 28.3809C23.959 28.2438 24.0859 28.1164 24.2226 27.9891C24.6521 27.5678 25.0915 27.1367 25.5015 26.7351C24.369 25.5888 23.2853 24.5014 22.1235 23.3355C22.0258 23.4727 21.938 23.6295 21.811 23.7666C21.3912 24.1977 20.9714 24.6287 20.5321 25.0304C20.1806 25.3537 19.751 25.3243 19.4483 25.0108C19.1554 24.7071 19.1457 24.3054 19.4386 23.9527C19.5655 23.8058 19.7022 23.6686 19.8389 23.5315C20.2587 23.1102 20.6785 22.6987 21.0593 22.3167C19.9365 21.1802 18.8528 20.0928 17.7203 18.9661C17.525 19.1817 17.3102 19.4168 17.0759 19.6519C16.7342 19.9948 16.4022 20.3475 16.0312 20.6512C15.7383 20.8961 15.4064 20.8863 15.1037 20.6512C14.8108 20.4259 14.7425 20.1026 14.8596 19.7793C14.928 19.6029 15.0744 19.456 15.2111 19.3188C15.6895 18.829 16.1874 18.3489 16.6268 17.9179C15.4942 16.7815 14.4105 15.6842 13.2975 14.5674C12.8582 15.0082 12.3993 15.4883 11.9307 15.9585C11.4132 16.4777 10.9836 16.5365 10.6126 16.1642C10.2514 15.8018 10.3295 15.3511 10.8274 14.8417C11.3058 14.3616 11.7745 13.8914 12.1845 13.4799C11.0617 12.3533 9.96825 11.2658 8.87477 10.1588C8.83572 10.198 8.75761 10.2665 8.68927 10.3351C8.22064 10.8054 7.76176 11.2854 7.2736 11.7361C6.94165 12.0496 6.47302 12.0202 6.18012 11.7165C5.89699 11.4324 5.88723 10.9915 6.17036 10.6486C6.32657 10.4625 6.51207 10.2861 6.68781 10.1196C7.06857 9.73751 7.44934 9.35543 7.78129 9.02234C5.6822 6.91602 3.63192 4.84888 1.58164 2.80133C1.58164 14.6751 1.58164 26.5881 1.58164 38.5109C13.4733 38.5109 25.3356 38.5109 37.1979 38.5109C35.1379 36.4339 33.0778 34.3668 30.9592 32.2507Z" fill="#02E602"/>
<path d="M40 26.8015C39.7821 27.584 39.2471 28.1387 38.6824 28.6834C38.1772 29.1688 37.6918 29.6739 37.1965 30.1692C36.0672 31.2786 34.6803 31.2786 33.5608 30.1593C26.2499 22.8394 18.939 15.5295 11.628 8.2195C11.4299 8.02139 11.2714 7.75396 11.1822 7.49643C10.4789 5.42626 9.79535 3.34619 9.1019 1.27602C8.98302 0.909531 8.91368 0.552948 9.21087 0.235984C9.52787 -0.090884 9.89441 -0.0215471 10.2808 0.107219C12.371 0.800576 14.4613 1.49393 16.5416 2.2071C16.7794 2.28634 17.0171 2.43492 17.1954 2.61321C24.5262 9.92317 31.847 17.243 39.1679 24.5629C39.5839 24.9789 39.8316 25.4643 40 26.019C40 26.2765 40 26.534 40 26.8015ZM13.748 8.02139C19.0678 13.3503 24.4172 18.6892 29.7469 24.028C30.8366 22.9385 31.9461 21.8291 33.016 20.7494C27.6863 15.4205 22.3369 10.0718 17.0171 4.75271C15.9472 5.83237 14.8476 6.93183 13.748 8.02139ZM36.4832 24.1568C35.3737 25.2662 34.2642 26.3755 33.1448 27.4948C33.6797 28.0396 34.2246 28.6042 34.7991 29.149C35.1756 29.5056 35.5916 29.5056 35.9582 29.1391C36.7012 28.4259 37.4243 27.6929 38.1376 26.9599C38.4843 26.5935 38.5041 26.1874 38.1673 25.8308C37.6225 25.2464 37.038 24.6917 36.4832 24.1568ZM12.589 6.71392C13.6489 5.66398 14.6891 4.63385 15.7392 3.59382C14.2037 3.07875 12.6583 2.56368 11.0237 2.02881C11.5785 3.66315 12.0837 5.20835 12.589 6.71392ZM31.9461 26.2567C33.0655 25.1374 34.175 24.028 35.2152 22.988C34.8982 22.6413 34.5515 22.2649 34.2543 21.948C33.1448 23.0573 32.0352 24.1667 30.9356 25.2662C31.2625 25.593 31.6192 25.9397 31.9461 26.2567Z" fill="#02E602"/>
<path d="M7.00962 24.4815C7.00962 22.0078 7.00962 19.5244 7.00962 17.0507C7.00962 16.9063 7 16.7619 7.02886 16.6272C7.13466 16.0689 7.75989 15.8187 8.2216 16.1459C8.34664 16.2325 8.45245 16.3481 8.55826 16.4539C13.5601 21.4495 18.5523 26.4547 23.5445 31.4503C23.6503 31.5562 23.7657 31.6621 23.8523 31.7872C24.1793 32.2588 23.9389 32.8652 23.3714 32.9711C23.2175 33 23.0635 33 22.9096 33C17.9752 33 13.031 33 8.09655 33C7.24047 33 7 32.7594 7 31.9027C7.00962 29.4386 7.00962 26.9552 7.00962 24.4815ZM8.56788 31.4311C12.829 31.4311 17.0517 31.4311 21.2071 31.4311C16.994 27.2151 12.7713 22.9896 8.56788 18.7833C8.56788 22.9511 8.56788 27.1766 8.56788 31.4311Z" fill="#02E602"/>
<path d="M26 16.1059C25.99 16.8042 25.3783 17.1787 24.8569 16.9156C24.7968 16.8852 24.7366 16.8548 24.6865 16.8042C23.5334 15.6403 22.3602 14.4967 21.2272 13.3125C20.776 12.8368 21.0367 12.098 21.6584 12.0069C21.8689 11.9766 22.1697 12.0474 22.3201 12.1891C23.5033 13.3429 24.6564 14.5169 25.8095 15.7011C25.9298 15.8225 25.9599 16.0249 26 16.1059Z" fill="#02E602"/>
</svg>
