<svg width="44" height="48" viewBox="0 0 44 48" fill="none" xmlns="http://www.w3.org/2000/svg">
<path d="M4.03519 8.64645C3.83993 8.45118 3.52335 8.45118 3.32809 8.64645L0.146107 11.8284C-0.0491555 12.0237 -0.0491555 12.3403 0.146107 12.5355C0.341369 12.7308 0.657951 12.7308 0.853214 12.5355L3.68164 9.70711L6.51007 12.5355C6.70533 12.7308 7.02191 12.7308 7.21717 12.5355C7.41244 12.3403 7.41244 12.0237 7.21717 11.8284L4.03519 8.64645ZM4.18164 44L4.18164 9H3.18164L3.18164 44H4.18164Z" fill="#02E602"/>
<path d="M40.0352 44.3536C40.2305 44.1583 40.2305 43.8417 40.0352 43.6464L36.8532 40.4645C36.658 40.2692 36.3414 40.2692 36.1461 40.4645C35.9508 40.6597 35.9508 40.9763 36.1461 41.1716L38.9745 44L36.1461 46.8284C35.9508 47.0237 35.9508 47.3403 36.1461 47.5355C36.3414 47.7308 36.658 47.7308 36.8532 47.5355L40.0352 44.3536ZM3.68164 44.5H39.6816V43.5H3.68164V44.5Z" fill="#02E602"/>
<path d="M30.3648 18.6894C30.3661 18.4168 30.1405 18.1947 29.8609 18.1933L25.3044 18.1715C25.0247 18.1701 24.797 18.3901 24.7957 18.6627C24.7944 18.9353 25.02 19.1574 25.2996 19.1587L29.3499 19.1782L29.3309 23.1272C29.3296 23.3998 29.5552 23.6219 29.8349 23.6232C30.1145 23.6246 30.3422 23.4046 30.3435 23.132L30.3648 18.6894ZM5.03796 43.3508L30.2149 19.0377L29.5022 18.3362L4.32532 42.6492L5.03796 43.3508Z" fill="#02E602"/>
<path d="M15.0356 5.524L12.8516 15.38H11.9836L12.6836 12.44L10.9196 5.524H11.8716L13.0616 11.012L14.1396 5.524H15.0356Z" fill="#02E602"/>
<path d="M38.3776 14.216V15H35.0456V14.3L37.4116 8.308H35.1296V7.524H38.3496V8.224L35.9836 14.216H38.3776Z" fill="#02E602"/>
<path d="M42.2376 38L41.0616 34.948L39.8016 38H38.8916L40.5996 34.192L38.9336 30.524H39.9276L41.0476 33.436L42.2376 30.524H43.1476L41.5096 34.192L43.2316 38H42.2376Z" fill="#02E602"/>
</svg>
